<svg width="800" height="200" xmlns="http://www.w3.org/2000/svg" version="1.1"><g transform="translate(100,100)"><g class="arc"><path d="M-89.58412016542783,8.642072331691415A90,90 0 0,1 -9.646878956150053e-14,-90L0,0Z" style="fill: rgb(191, 105, 105);"></path></g><g class="arc"><path d="M5.5109105961630896e-15,-90A90,90 0 1,1 -89.58412016542783,8.642072331691415L0,0Z" style="fill: rgb(105, 191, 191);"></path></g><text y="100" style="text-anchor: middle; font-size: 11px; font-family: Arial, Helvetica;">villa portales</text></g><g transform="translate(300,100)"><g class="arc"><path d="M-5.766319798264135,89.81508534753027A90,90 0 0,1 -1.6532731788489267e-14,-90L0,0Z" style="fill: rgb(191, 105, 105);"></path></g><g class="arc"><path d="M5.5109105961630896e-15,-90A90,90 0 1,1 -5.766319798264135,89.81508534753027L0,0Z" style="fill: rgb(105, 191, 191);"></path></g><text y="100" style="text-anchor: middle; font-size: 11px; font-family: Arial, Helvetica;">villa santa adriana</text></g><g transform="translate(500,100)"><g class="arc"><path d="M5.482721610300552e-15,-89.53963892475505A89.53963892475505,89.53963892475505 0 1,1 -70.51850452681764,-55.176874305062896L0,0Z" style="fill: rgb(191, 105, 105);"></path></g><g class="arc"><path d="M-70.51850452681764,-55.176874305062896A89.53963892475505,89.53963892475505 0 0,1 6.30790101698071e-14,-89.53963892475505L0,0Z" style="fill: rgb(105, 191, 191);"></path></g><text y="99.53963892475505" style="text-anchor: middle; font-size: 11px; font-family: Arial, Helvetica;">las Viñitas</text></g></svg>